<?xml version="1.0" encoding="utf-8"?><svg viewBox="0 0 72 72" xmlns="http://www.w3.org/2000/svg" xmlns:xlink="http://www.w3.org/1999/xlink"><style>:root>svg{display:none}:root>svg:target{display:block}</style><svg viewBox="0 0 24 24" id="arrow-left" xmlns="http://www.w3.org/2000/svg"><path d="M5 15l-3-4 3-4M2 11h21"/></svg><svg viewBox="0 0 24 24" id="arrow-right" xmlns="http://www.w3.org/2000/svg"><path d="M19 15l3-4-3-4M22 11H1"/></svg><svg fill="none" viewBox="0 0 24 24" id="facebook" xmlns="http://www.w3.org/2000/svg"><path fill="#D3B36F" d="M0 0h24v24H0z"/><path fill-rule="evenodd" clip-rule="evenodd" d="M0 0v24h24V0H0zm15.877 6.605h-1.876c-.371 0-.746.384-.746.67v1.912h2.618c-.105 1.467-.321 2.808-.321 2.808h-2.31v8.313H9.798v-8.313H8.123V9.197h1.676V6.91c0-.418-.085-3.218 3.527-3.218h2.551v2.913z" fill="#fff"/></svg><svg fill="none" viewBox="0 0 24 24" id="instagram" xmlns="http://www.w3.org/2000/svg"><path fill="#D3B36F" d="M0 0h24v24H0z"/><path fill-rule="evenodd" clip-rule="evenodd" d="M16.116 5.501H7.884a2.386 2.386 0 00-2.383 2.383v8.232a2.386 2.386 0 002.383 2.383h8.232a2.386 2.386 0 002.383-2.383V7.884a2.386 2.386 0 00-2.383-2.383zM12 16.28a4.284 4.284 0 01-4.279-4.28A4.284 4.284 0 0112 7.722c2.36 0 4.279 1.92 4.279 4.279 0 2.36-1.92 4.279-4.28 4.279zm4.416-7.673a1.014 1.014 0 010-2.025 1.013 1.013 0 010 2.025z" fill="#fff"/><path fill-rule="evenodd" clip-rule="evenodd" d="M12 9.53A2.474 2.474 0 009.529 12a2.474 2.474 0 002.47 2.471A2.474 2.474 0 0014.47 12 2.473 2.473 0 0012 9.53z" fill="#fff"/><path fill-rule="evenodd" clip-rule="evenodd" d="M0 0v24h24V0H0zm20.307 16.116c0 2.311-1.88 4.19-4.191 4.19H7.884c-2.31 0-4.19-1.879-4.19-4.19V7.884c0-2.31 1.88-4.19 4.19-4.19h8.232c2.311 0 4.19 1.88 4.19 4.19v8.232z" fill="#fff"/></svg><svg fill="none" viewBox="0 0 72 72" id="play" xmlns="http://www.w3.org/2000/svg"><circle cx="36" cy="36" r="35.25" stroke="url(#epaint0_linear_1_394)" stroke-width="1.5"/><circle cx="36" cy="36" r="22" fill="#fff"/><path d="M42 36l-9 5.196V30.804L42 36z" fill="#000"/><defs><linearGradient id="epaint0_linear_1_394" x1="10" y1="11" x2="58.5" y2="65" gradientUnits="userSpaceOnUse"><stop stop-color="#fff"/><stop offset="1"/></linearGradient></defs></svg><svg fill="none" viewBox="0 0 24 24" id="vk" xmlns="http://www.w3.org/2000/svg"><path fill="#D3B36F" d="M0 0h24v24H0z"/><path fill-rule="evenodd" clip-rule="evenodd" d="M0 0v24h24V0H0zm17.992 13.278c.55.537 1.133 1.043 1.628 1.638.218.262.425.533.583.837.223.436.02.914-.369.94h-2.42c-.624.05-1.122-.201-1.542-.629-.333-.34-.645-.704-.968-1.056a2.281 2.281 0 00-.434-.388c-.33-.214-.618-.15-.806.195-.193.35-.238.74-.255 1.13-.027.57-.199.72-.771.747-1.224.057-2.385-.13-3.463-.745-.952-.544-1.69-1.313-2.33-2.182-1.251-1.694-2.209-3.555-3.068-5.468-.195-.432-.053-.663.422-.671a66.27 66.27 0 012.37-.001c.321.005.534.189.657.492.428 1.05.95 2.05 1.606 2.977.176.246.354.492.607.666.28.193.495.13.627-.184.084-.2.12-.411.138-.624.063-.73.071-1.46-.037-2.188-.067-.455-.325-.749-.778-.835-.231-.044-.197-.129-.085-.261.195-.228.379-.37.743-.37h2.735c.431.084.528.279.586.712l.003 3.04c-.005.167.084.665.385.775.241.08.402-.114.547-.268.655-.695 1.122-1.516 1.54-2.367.185-.374.344-.762.5-1.15.114-.288.293-.43.617-.425l2.633.004c.078 0 .157 0 .234.012.443.077.565.268.427.701-.215.68-.636 1.247-1.046 1.814-.44.608-.909 1.195-1.345 1.806-.4.56-.368.841.129 1.326z" fill="#fff"/></svg></svg>